<?xml version="1.0" encoding="utf-8"?>
<!-- Generator: Adobe Illustrator 19.0.0, SVG Export Plug-In . SVG Version: 6.00 Build 0)  -->
<svg version="1.1" id="layer" xmlns="http://www.w3.org/2000/svg" xmlns:xlink="http://www.w3.org/1999/xlink" x="0px" y="0px"
	 viewBox="-153 -46 652 652" style="enable-background:new -153 -46 652 652;" xml:space="preserve">
<path d="M-87.2,303v-39.2l-17,23L-121,264V303h-10.8v-56.5h10.7l16.9,23.5l17.6-23.5h10.1V303H-87.2L-87.2,303z M7.7,303l-3.4-9.9
	h-21.7l-3.4,9.9H-32l20.1-56.5h10.8L19,303H7.7L7.7,303z M-6.5,261.7l-7.3,21H0.8L-6.5,261.7L-6.5,261.7z M93.4,282.7l11.1,20.3
	H92.3l-8.7-17h-9.5v17H63.4v-56.5h18.1c3.4,0,6.4,0.5,9,1.5s4.9,2.3,6.7,4c1.8,1.7,3.2,3.8,4.2,6.3c1,2.4,1.5,5.1,1.5,8.1
	c0,3.3-0.8,6.5-2.4,9.5C98.7,278.7,96.4,281,93.4,282.7L93.4,282.7z M89.3,259c-1.8-1.7-4.7-2.5-8.7-2.5h-6.4v19.5h6.4
	c2.2,0,4-0.2,5.5-0.8c1.5-0.6,2.7-1.3,3.6-2.2c0.9-0.9,1.5-2,1.9-3.3c0.3-1.2,0.6-2.5,0.6-3.9C92,263,91.1,260.7,89.3,259L89.3,259z
	 M192.4,303h-12.2l-14.7-27l-5.9,7.3v19.6h-10.8v-56.5h10.8v22.7l18.2-22.7h13.1l-17.8,22L192.4,303L192.4,303z M268.7,303v-23.2
	h-21.3v23.1h-10.8v-56.5h10.8v23.1h21.3v-23.1h10.8V303H268.7L268.7,303z M379.9,286c-1.5,3.5-3.6,6.6-6.2,9.2
	c-2.6,2.6-5.7,4.6-9.2,6.2c-3.5,1.5-7.3,2.3-11.3,2.3c-4,0-7.8-0.7-11.3-2.3c-3.5-1.5-6.6-3.6-9.2-6.2c-2.6-2.6-4.6-5.7-6.2-9.2
	c-1.5-3.5-2.3-7.3-2.3-11.3s0.7-7.8,2.3-11.3c1.5-3.5,3.6-6.6,6.2-9.2c2.6-2.6,5.6-4.7,9.2-6.2c3.6-1.5,7.3-2.4,11.4-2.4
	c4,0,7.8,0.7,11.3,2.3c3.5,1.5,6.6,3.6,9.2,6.2c2.6,2.6,4.7,5.7,6.2,9.2c1.5,3.5,2.3,7.3,2.3,11.3
	C382.1,278.7,381.4,282.5,379.9,286L379.9,286z M370,267.5c-1-2.3-2.3-4.2-3.9-5.9c-1.6-1.6-3.6-2.9-5.8-3.9c-2.2-1-4.6-1.5-7.1-1.5
	c-2.5,0-4.9,0.5-7.1,1.5c-2.2,1-4.2,2.3-5.8,3.9c-1.6,1.6-2.9,3.6-3.8,5.9c-1,2.3-1.5,4.6-1.5,7.2s0.5,4.9,1.5,7.2
	c1,2.3,2.3,4.2,3.8,5.9c1.6,1.6,3.6,2.9,5.8,3.9c2.2,1,4.6,1.5,7.1,1.5c2.5,0,4.9-0.5,7.1-1.5c2.2-1,4.2-2.3,5.8-3.9
	c1.6-1.6,2.9-3.6,3.9-5.9c1-2.3,1.5-4.6,1.5-7.2S371,269.7,370,267.5L370,267.5z M457.1,282.7l11.2,20.3H456l-8.7-17h-9.5v17h-10.8
	v-56.5h18.1c3.4,0,6.4,0.5,9,1.5c2.6,1,4.9,2.3,6.7,4s3.2,3.8,4.2,6.3c1,2.4,1.5,5.1,1.5,8.1c0,3.3-0.8,6.5-2.4,9.5
	C462.4,278.7,460.1,281,457.1,282.7L457.1,282.7z M452.9,259c-1.8-1.7-4.7-2.5-8.7-2.5h-6.4v19.5h6.4c2.2,0,4-0.2,5.5-0.8
	c1.5-0.6,2.7-1.3,3.6-2.2c0.9-0.9,1.5-2,1.9-3.3c0.3-1.2,0.6-2.5,0.6-3.9C455.6,263,454.7,260.7,452.9,259L452.9,259z"/>
</svg>
